<svg width="40" height="31" viewBox="0 0 40 31" fill="none" xmlns="http://www.w3.org/2000/svg">
<path d="M0.100037 14.5L0.0499878 14C0.0499878 13.3333 0.199939 12.7167 0.499939 12.15L1.24994 11.15L11.35 1.15002C12.1167 0.383358 13.05 0 14.15 0H35.15C36.2166 0.0333333 37.1333 0.416691 37.9 1.15002C38.6666 1.95002 39.05 2.9 39.05 4V24.1C39.0167 25.1666 38.6333 26.0667 37.9 26.8V26.85C37.1333 27.5833 36.2166 27.9667 35.15 28H14.15C13.05 28 12.1167 27.6166 11.35 26.85L1.24994 16.85L0.499939 15.85C0.266606 15.4166 0.13337 14.9667 0.100037 14.5ZM13.35 2.15002L12.7499 2.54999L2.64996 12.55C2.24996 12.95 2.04999 13.4333 2.04999 14C2.04999 14.5667 2.24996 15.0334 2.64996 15.4L12.7499 25.4L13.3 25.8L14.15 26H35.05C35.6167 26 36.0999 25.8 36.4999 25.4C36.8666 25.0334 37.05 24.5667 37.05 24V4C37.05 3.43333 36.8666 2.94999 36.4999 2.54999C36.0999 2.18332 35.6167 2 35.05 2H14.15L13.35 2.15002Z" fill="#1989B8"/>
<path d="M13.35 2.15002L14.15 2H35.05C35.6167 2 36.0999 2.18332 36.4999 2.54999C36.8666 2.94999 37.05 3.43333 37.05 4V24C37.05 24.5667 36.8666 25.0334 36.4999 25.4C36.0999 25.8 35.6167 26 35.05 26H14.15L13.3 25.8L12.7499 25.4L2.64996 15.4C2.24996 15.0334 2.04999 14.5667 2.04999 14C2.04999 13.4333 2.24996 12.95 2.64996 12.55L12.7499 2.54999L13.35 2.15002ZM4.04999 14L14.15 24H35.05V4H14.15L4.04999 14Z" fill="#35BAF3"/>
<path d="M39.05 24.1V27C39.05 28.1 38.6666 29.0333 37.9 29.8V29.85C37.1333 30.5833 36.2166 30.9667 35.15 31H14.15C13.05 31 12.1167 30.6166 11.35 29.85L1.24994 19.85L0.499939 18.85C0.199939 18.2833 0.0499878 17.6667 0.0499878 17L0.100037 16.5L0.0499878 16L0.100037 15.5L0.0499878 15L0.100037 14.5C0.13337 14.9667 0.266606 15.4166 0.499939 15.85L1.24994 16.85L11.35 26.85C12.1167 27.6166 13.05 28 14.15 28H35.15C36.2166 27.9667 37.1333 27.5833 37.9 26.85V26.8C38.6333 26.0667 39.0167 25.1666 39.05 24.1Z" fill="black" fill-opacity="0.101961"/>
<path d="M4.04999 14L14.15 4H35.05V24H14.15L4.04999 14Z" fill="#1EA7E1"/>
</svg>
