<svg width="40" height="31" viewBox="0 0 40 31" fill="none" xmlns="http://www.w3.org/2000/svg">
<path d="M25.75 2.15002C25.9833 2.25002 26.1834 2.38332 26.3501 2.54999L36.4501 12.55C36.8501 12.95 37.05 13.4333 37.05 14C37.05 14.5667 36.8501 15.0334 36.4501 15.4L26.3501 25.4L25.8 25.8L24.9501 26H4.05005C3.48338 26 3.0001 25.8 2.6001 25.4C2.23343 25.0334 2.05005 24.5667 2.05005 24V4C2.05005 3.43333 2.23343 2.94999 2.6001 2.54999C3.0001 2.18332 3.48338 2 4.05005 2H24.9501L25.75 2.15002ZM4.05005 4V24H24.9501L35.05 14L24.9501 4H4.05005Z" fill="#35BAF3"/>
<path d="M25.75 2.15002L24.9501 2H4.05005C3.48338 2 3.0001 2.18332 2.6001 2.54999C2.23343 2.94999 2.05005 3.43333 2.05005 4V24C2.05005 24.5667 2.23343 25.0334 2.6001 25.4C3.0001 25.8 3.48338 26 4.05005 26H24.9501L25.8 25.8L26.3501 25.4L36.4501 15.4C36.8501 15.0334 37.05 14.5667 37.05 14C37.05 13.4333 36.8501 12.95 36.4501 12.55L26.3501 2.54999C26.1834 2.38332 25.9833 2.25002 25.75 2.15002ZM0.0500488 24.1V4C0.0500488 2.9 0.433407 1.95002 1.20007 1.15002C1.96674 0.416691 2.88341 0.0333333 3.95007 0H24.9501C26.0501 0 26.9833 0.383358 27.75 1.15002L37.8501 11.15L38.6001 12.15C38.9001 12.7167 39.05 13.3333 39.05 14L39 14.5L38.6001 15.85L37.8501 16.85L27.75 26.85C26.9833 27.6166 26.0501 28 24.9501 28H3.95007C2.88341 27.9667 1.96674 27.5833 1.20007 26.85V26.8C0.46674 26.0667 0.0833822 25.1666 0.0500488 24.1Z" fill="#1989B8"/>
<path d="M0.0500488 24.1C0.0833822 25.1666 0.46674 26.0667 1.20007 26.8V26.85C1.96674 27.5833 2.88341 27.9667 3.95007 28H24.9501C26.0501 28 26.9833 27.6166 27.75 26.85L37.8501 16.85L38.6001 15.85L39 14.5L39.05 15L39 15.5L39.05 16L39 16.5L39.05 17C39.05 17.6667 38.9001 18.2833 38.6001 18.85L37.8501 19.85L27.75 29.85C26.9833 30.6166 26.0501 31 24.9501 31H3.95007C2.88341 30.9667 1.96674 30.5833 1.20007 29.85V29.8C0.433407 29.0333 0.0500488 28.1 0.0500488 27V24.1Z" fill="black" fill-opacity="0.101961"/>
<path d="M4.05005 4H24.9501L35.05 14L24.9501 24H4.05005V4Z" fill="#1EA7E1"/>
</svg>
